<?xml version="1.0" encoding="UTF-8" standalone="no"?>
<!-- Created with Inkscape (http://www.inkscape.org/) -->

<svg
   xmlns:dc="http://purl.org/dc/elements/1.1/"
   xmlns:cc="http://creativecommons.org/ns#"
   xmlns:rdf="http://www.w3.org/1999/02/22-rdf-syntax-ns#"
   xmlns:svg="http://www.w3.org/2000/svg"
   xmlns="http://www.w3.org/2000/svg"
   xmlns:sodipodi="http://sodipodi.sourceforge.net/DTD/sodipodi-0.dtd"
   xmlns:inkscape="http://www.inkscape.org/namespaces/inkscape"
   width="128"
   height="128"
   id="svg2"
   version="1.1"
   inkscape:version="0.48.4 r9939"
   sodipodi:docname="New document 1">
  <defs
     id="defs4" />
  <sodipodi:namedview
     id="base"
     pagecolor="#ffffff"
     bordercolor="#666666"
     borderopacity="1.0"
     inkscape:pageopacity="0.0"
     inkscape:pageshadow="2"
     inkscape:zoom="2.8"
     inkscape:cx="66.093499"
     inkscape:cy="50.66673"
     inkscape:document-units="px"
     inkscape:current-layer="layer1"
     showgrid="true"
     inkscape:window-width="956"
     inkscape:window-height="835"
     inkscape:window-x="859"
     inkscape:window-y="532"
     inkscape:window-maximized="0">
    <inkscape:grid
       type="xygrid"
       id="grid2985"
       empspacing="8"
       visible="true"
       enabled="true"
       snapvisiblegridlinesonly="true" />
  </sodipodi:namedview>
  <metadata
     id="metadata7">
    <rdf:RDF>
      <cc:Work
         rdf:about="">
        <dc:format>image/svg+xml</dc:format>
        <dc:type
           rdf:resource="http://purl.org/dc/dcmitype/StillImage" />
        <dc:title></dc:title>
      </cc:Work>
    </rdf:RDF>
  </metadata>
  <g
     inkscape:label="Layer 1"
     inkscape:groupmode="layer"
     id="layer1"
     transform="translate(0,-924.36218)">
    <path
       sodipodi:type="arc"
       style="fill:#2b1100;fill-rule:evenodd;stroke:#000000;stroke-width:1px;stroke-linecap:butt;stroke-linejoin:miter;stroke-opacity:1"
       id="path2987"
       sodipodi:cx="20"
       sodipodi:cy="108"
       sodipodi:rx="12"
       sodipodi:ry="12"
       d="m 32,108 a 12,12 0 1 1 -24,0 12,12 0 1 1 24,0 z"
       transform="translate(8.9285714,923.29075)" />
    <path
       sodipodi:type="arc"
       style="fill:#2b1100;fill-rule:evenodd;stroke:#000000;stroke-width:1px;stroke-linecap:butt;stroke-linejoin:miter;stroke-opacity:1"
       id="path2989"
       sodipodi:cx="44"
       sodipodi:cy="108"
       sodipodi:rx="12"
       sodipodi:ry="12"
       d="m 56,108 a 12,12 0 1 1 -24,0 12,12 0 1 1 24,0 z"
       transform="translate(8.9285714,923.29075)" />
    <path
       sodipodi:type="arc"
       style="fill:#2b1100;fill-rule:evenodd;stroke:#000000;stroke-width:1px;stroke-linecap:butt;stroke-linejoin:miter;stroke-opacity:1"
       id="path2991"
       sodipodi:cx="68"
       sodipodi:cy="108"
       sodipodi:rx="12"
       sodipodi:ry="12"
       d="m 80,108 a 12,12 0 1 1 -24,0 12,12 0 1 1 24,0 z"
       transform="translate(8.9285714,923.29075)" />
    <path
       sodipodi:type="arc"
       style="fill:#2b1100;fill-rule:evenodd;stroke:#000000;stroke-width:1px;stroke-linecap:butt;stroke-linejoin:miter;stroke-opacity:1"
       id="path2993"
       sodipodi:cx="92"
       sodipodi:cy="108"
       sodipodi:rx="12"
       sodipodi:ry="12"
       d="m 104,108 a 12,12 0 1 1 -24,0 12,12 0 1 1 24,0 z"
       transform="translate(8.9285714,923.29075)" />
    <path
       style="fill:#808000;fill-rule:evenodd;stroke:#000000;stroke-width:1px;stroke-linecap:butt;stroke-linejoin:miter;stroke-opacity:1"
       d="m 24,932.36218 0,80.00002 -15.4285714,0.3571 0,16 112.0000014,0 0,-16 -80.000001,0 0,-79.99998 z"
       id="rect2997"
       inkscape:connector-curvature="0"
       sodipodi:nodetypes="ccccccccc" />
    <path
       style="fill:#00ffff;stroke:#000000;stroke-width:1px;stroke-linecap:butt;stroke-linejoin:miter;stroke-opacity:1"
       d="m 48,88 8,-24 0,-40 8,-16 8,16 0,40 8,24 z"
       id="path3002"
       inkscape:connector-curvature="0"
       transform="translate(0,924.36218)" />
  </g>
</svg>
